<?xml version="1.0" encoding="UTF-8" standalone="no"?><!DOCTYPE svg PUBLIC "-//W3C//DTD SVG 1.1//EN" "http://www.w3.org/Graphics/SVG/1.1/DTD/svg11.dtd"><svg width="100%" height="100%" viewBox="0 0 3334 3334" version="1.1" xmlns="http://www.w3.org/2000/svg" xmlns:xlink="http://www.w3.org/1999/xlink" xml:space="preserve" xmlns:serif="http://www.serif.com/" style="fill-rule:evenodd;clip-rule:evenodd;stroke-linejoin:round;stroke-miterlimit:2;"><g id="Magic"><path id="Star-11" serif:id="Star 11" d="M2244.03,529.031c25.794,-69.704 124.38,-69.704 150.173,0l114.868,310.421c8.116,21.915 25.394,39.194 47.311,47.303l310.419,114.867c69.701,25.792 69.701,124.383 -0,150.175l-310.419,114.873c-21.917,8.103 -39.195,25.382 -47.311,47.298l-114.868,310.419c-25.793,69.701 -124.379,69.701 -150.173,0l-114.867,-310.419c-8.104,-21.916 -25.383,-39.195 -47.299,-47.298l-310.419,-114.873c-69.714,-25.792 -69.714,-124.382 -0,-150.175l310.419,-114.867c21.916,-8.109 39.195,-25.388 47.299,-47.303l114.867,-310.421Z" style="fill:#fff;fill-rule:nonzero;"/><path id="Star-13" serif:id="Star 13" d="M1114.08,1326.41c34.393,-92.939 165.841,-92.939 200.236,-0l153.153,413.892c10.808,29.222 33.847,52.26 63.069,63.069l413.892,153.153c92.939,34.395 92.951,165.843 -0,200.239l-413.892,153.152c-29.222,10.809 -52.261,33.847 -63.069,63.069l-153.153,413.892c-34.395,92.939 -165.843,92.939 -200.236,0l-153.156,-413.892c-10.812,-29.222 -33.85,-52.26 -63.07,-63.069l-413.894,-153.152c-92.94,-34.396 -92.94,-165.844 -0,-200.239l413.894,-153.153c29.22,-10.809 52.258,-33.847 63.07,-63.069l153.156,-413.892Z" style="fill:#fff;fill-rule:nonzero;"/></g></svg>